<?xml version="1.0" encoding="UTF-8"?>
<svg xmlns="http://www.w3.org/2000/svg" width="157" height="67" viewBox="0 0 157 67" fill="none">
  <path d="M78.9011 35.5825C78.9011 36.9406 78.5331 37.9772 77.7971 38.6925C77.0714 39.3975 76.071 39.7499 74.7959 39.7499C73.5519 39.7499 72.5567 39.4026 71.8103 38.7081C71.0743 38.0031 70.7063 36.9976 70.7063 35.6914V29.1293H72.6656V35.6758C72.6656 36.4741 72.8626 37.0546 73.2565 37.4174C73.6504 37.7699 74.1636 37.9461 74.7959 37.9461C76.2265 37.9461 76.9418 37.1634 76.9418 35.5981V29.1293H78.9011V35.5825Z" fill="white"></path>
  <path d="M87.783 39.61H85.917V34.7584C85.917 34.24 85.7926 33.8513 85.5438 33.5921C85.295 33.3226 84.9581 33.1878 84.533 33.1878C84.0458 33.1878 83.6363 33.3796 83.3046 33.7632C82.9729 34.1364 82.807 34.6754 82.807 35.3804V39.61H80.941V31.7261H82.807V33.079C83.2528 32.1149 84.0614 31.6328 85.2328 31.6328C86.0207 31.6328 86.6427 31.8713 87.0988 32.3481C87.5549 32.825 87.783 33.4988 87.783 34.3696V39.61Z" fill="white"></path>
  <path d="M91.6772 39.61H89.8112V31.7261H91.6772V39.61ZM91.8638 29.3625C91.8638 29.6839 91.7549 29.9534 91.5372 30.1711C91.3195 30.3888 91.0552 30.4977 90.7442 30.4977C90.4332 30.4977 90.1688 30.3888 89.9511 30.1711C89.7334 29.9534 89.6246 29.6839 89.6246 29.3625C89.6246 29.0515 89.7334 28.7872 89.9511 28.5695C90.1688 28.3518 90.4332 28.2429 90.7442 28.2429C91.0552 28.2429 91.3195 28.3518 91.5372 28.5695C91.7549 28.7872 91.8638 29.0515 91.8638 29.3625Z" fill="white"></path>
  <path d="M97.8313 39.61H95.8098L92.9642 31.7261H94.9235L95.9653 35.0694C96.1727 35.7225 96.3489 36.3082 96.494 36.8265C96.6392 37.3345 96.7325 37.6818 96.7739 37.8684L96.8206 38.1483C96.9242 37.5677 97.2197 36.5414 97.7069 35.0694L98.7954 31.7261H100.724L97.8313 39.61Z" fill="white"></path>
  <path d="M107.945 39.1746C107.396 39.5167 106.603 39.6877 105.566 39.6877C104.312 39.6877 103.322 39.3145 102.596 38.5681C101.87 37.8217 101.508 36.8576 101.508 35.6758C101.508 34.4215 101.85 33.4366 102.534 32.7213C103.218 32.006 104.073 31.6484 105.1 31.6484C106.126 31.6484 106.94 31.9594 107.541 32.5814C108.142 33.2034 108.443 34.1105 108.443 35.3026C108.443 35.5929 108.407 35.9661 108.334 36.4222H103.389C103.524 36.9924 103.804 37.4278 104.229 37.7284C104.664 38.0291 105.203 38.1794 105.846 38.1794C106.675 38.1794 107.375 37.972 107.945 37.5574V39.1746ZM105.146 33.1101C104.701 33.1101 104.312 33.2759 103.98 33.6077C103.659 33.929 103.451 34.4007 103.358 35.0227H106.67V34.7895C106.649 34.2815 106.509 33.8772 106.25 33.5766C106.002 33.2656 105.634 33.1101 105.146 33.1101Z" fill="white"></path>
  <path d="M112.024 39.61H110.142L110.158 31.7261H112.024V33.1256C112.387 32.1512 113.05 31.6639 114.014 31.6639C114.232 31.6639 114.408 31.6795 114.543 31.7106V33.5144C114.305 33.4107 114.04 33.3589 113.75 33.3589C113.242 33.3589 112.827 33.5662 112.506 33.9809C112.185 34.3955 112.024 34.9139 112.024 35.5359V39.61Z" fill="white"></path>
  <path d="M120.787 37.3397C120.787 38.0757 120.523 38.6511 119.994 39.0657C119.465 39.4804 118.76 39.6877 117.879 39.6877C116.905 39.6877 116.117 39.527 115.516 39.2057V37.4952C116.21 37.9617 116.962 38.1949 117.77 38.1949C118.112 38.1949 118.377 38.1327 118.563 38.0083C118.76 37.8736 118.859 37.6921 118.859 37.4641C118.859 37.3293 118.828 37.2101 118.766 37.1064C118.703 36.9924 118.584 36.8835 118.408 36.7799C118.232 36.6762 118.092 36.6036 117.988 36.5622C117.895 36.5103 117.703 36.4222 117.413 36.2978C117.382 36.2875 117.356 36.2771 117.335 36.2667C117.325 36.2564 117.304 36.246 117.273 36.2356C117.242 36.2253 117.216 36.2149 117.195 36.2045C116.044 35.6862 115.469 34.9398 115.469 33.9653C115.469 33.2397 115.744 32.6695 116.293 32.2548C116.843 31.8402 117.532 31.6328 118.361 31.6328C119.159 31.6328 119.823 31.7469 120.352 31.9749V33.6232C119.833 33.3122 119.185 33.1567 118.408 33.1567C118.087 33.1567 117.833 33.2293 117.646 33.3744C117.47 33.5092 117.382 33.6854 117.382 33.9031C117.382 33.9861 117.392 34.0638 117.413 34.1364C117.444 34.2089 117.49 34.2815 117.553 34.3541C117.625 34.4163 117.693 34.4733 117.755 34.5251C117.817 34.577 117.905 34.634 118.019 34.6962C118.133 34.748 118.232 34.7947 118.315 34.8361C118.397 34.8776 118.512 34.9294 118.657 34.9916C118.802 35.0538 118.916 35.1057 118.999 35.1471C119.548 35.4167 119.984 35.7173 120.305 36.049C120.626 36.3808 120.787 36.811 120.787 37.3397Z" fill="white"></path>
  <path d="M124.22 39.61H122.354V31.7261H124.22V39.61ZM124.406 29.3625C124.406 29.6839 124.298 29.9534 124.08 30.1711C123.862 30.3888 123.598 30.4977 123.287 30.4977C122.976 30.4977 122.711 30.3888 122.494 30.1711C122.276 29.9534 122.167 29.6839 122.167 29.3625C122.167 29.0515 122.276 28.7872 122.494 28.5695C122.711 28.3518 122.976 28.2429 123.287 28.2429C123.598 28.2429 123.862 28.3518 124.08 28.5695C124.298 28.7872 124.406 29.0515 124.406 29.3625Z" fill="white"></path>
  <path d="M130.669 39.4234C130.307 39.5996 129.84 39.6877 129.27 39.6877C127.57 39.6877 126.72 38.8273 126.72 37.1064V33.1256H125.538V31.7261H126.72V29.829H128.586V31.7261H130.545V33.1256H128.586V37.1375C128.586 37.4693 128.674 37.7232 128.85 37.8995C129.026 38.0653 129.27 38.1483 129.581 38.1483C129.975 38.1483 130.338 38.0394 130.669 37.8217V39.4234Z" fill="white"></path>
  <path d="M134.913 38.2882C135.328 38.2882 135.649 38.169 135.877 37.9306C136.116 37.6818 136.235 37.3604 136.235 36.9665V36.2201H135.271C134.784 36.2201 134.41 36.3237 134.151 36.5311C133.892 36.728 133.762 36.982 133.762 37.293C133.762 37.9565 134.146 38.2882 134.913 38.2882ZM136.313 38.6614C135.95 39.3353 135.266 39.6722 134.26 39.6722C133.514 39.6722 132.918 39.4545 132.472 39.0191C132.036 38.5837 131.819 38.0342 131.819 37.3708C131.819 36.6244 132.099 36.0387 132.658 35.6136C133.218 35.1886 134.027 34.9761 135.084 34.9761H136.235V34.494C136.235 34.0586 136.121 33.7269 135.893 33.4988C135.665 33.2708 135.276 33.1567 134.727 33.1567C133.887 33.1567 133.114 33.39 132.41 33.8565V32.1304C133 31.7676 133.851 31.5862 134.96 31.5862C137.095 31.5862 138.163 32.5814 138.163 34.5718V39.61H136.313V38.6614Z" fill="white"></path>
  <path d="M141.955 39.61H140.073L140.089 31.7261H141.955V33.1256C142.318 32.1512 142.981 31.6639 143.945 31.6639C144.163 31.6639 144.339 31.6795 144.474 31.7106V33.5144C144.235 33.4107 143.971 33.3589 143.681 33.3589C143.173 33.3589 142.758 33.5662 142.437 33.9809C142.115 34.3955 141.955 34.9139 141.955 35.5359V39.61Z" fill="white"></path>
  <path d="M147.514 39.61H145.648V31.7261H147.514V39.61ZM147.701 29.3625C147.701 29.6839 147.592 29.9534 147.374 30.1711C147.157 30.3888 146.892 30.4977 146.581 30.4977C146.27 30.4977 146.006 30.3888 145.788 30.1711C145.571 29.9534 145.462 29.6839 145.462 29.3625C145.462 29.0515 145.571 28.7872 145.788 28.5695C146.006 28.3518 146.27 28.2429 146.581 28.2429C146.892 28.2429 147.157 28.3518 147.374 28.5695C147.592 28.7872 147.701 29.0515 147.701 29.3625Z" fill="white"></path>
  <path d="M156.794 35.6447C156.794 36.8369 156.457 37.8165 155.783 38.5837C155.12 39.3508 154.187 39.7344 152.984 39.7344C151.792 39.7344 150.859 39.3612 150.185 38.6148C149.522 37.8684 149.19 36.9146 149.19 35.7536C149.19 34.551 149.537 33.561 150.232 32.7835C150.927 31.9957 151.844 31.6017 152.984 31.6017C154.197 31.6017 155.135 31.9853 155.799 32.7524C156.462 33.5092 156.794 34.4733 156.794 35.6447ZM151.149 35.6914C151.149 36.417 151.31 37.0235 151.632 37.5107C151.953 37.998 152.409 38.2416 153 38.2416C153.612 38.2416 154.073 38.0031 154.384 37.5263C154.695 37.0494 154.85 36.443 154.85 35.7069C154.85 34.9502 154.7 34.3333 154.399 33.8565C154.099 33.3692 153.627 33.1256 152.984 33.1256C152.393 33.1256 151.937 33.3692 151.616 33.8565C151.305 34.3437 151.149 34.9553 151.149 35.6914Z" fill="white"></path>
  <path d="M78.4191 54.3624C77.7764 54.777 76.8744 54.9844 75.7134 54.9844C74.1584 54.9844 72.8729 54.4971 71.857 53.5227C70.8514 52.5378 70.3486 51.2368 70.3486 49.6196C70.3486 48.0335 70.8462 46.7429 71.8414 45.7477C72.847 44.7421 74.1376 44.2393 75.7134 44.2393C76.8641 44.2393 77.7608 44.4311 78.4035 44.8147V46.7273C77.6157 46.2712 76.7449 46.0431 75.7911 46.0431C74.8374 46.0431 74.0392 46.3697 73.3964 47.0228C72.7641 47.6655 72.4479 48.5311 72.4479 49.6196C72.4479 50.7081 72.7641 51.5737 73.3964 52.2165C74.0392 52.8592 74.8737 53.1806 75.9 53.1806C76.8848 53.1806 77.7245 52.9214 78.4191 52.4031V54.3624Z" fill="white"></path>
  <path d="M87.3506 50.8947C87.3506 52.0869 87.0137 53.0665 86.3399 53.8337C85.6764 54.6008 84.7434 54.9844 83.5409 54.9844C82.3487 54.9844 81.4157 54.6112 80.7419 53.8648C80.0784 53.1184 79.7467 52.1646 79.7467 51.0036C79.7467 49.801 80.0939 48.811 80.7885 48.0335C81.4831 47.2457 82.4005 46.8517 83.5409 46.8517C84.7538 46.8517 85.6919 47.2353 86.3554 48.0024C87.0189 48.7592 87.3506 49.7233 87.3506 50.8947ZM81.706 50.9414C81.706 51.667 81.8666 52.2735 82.188 52.7607C82.5094 53.248 82.9655 53.4916 83.5564 53.4916C84.168 53.4916 84.6294 53.2531 84.9404 52.7763C85.2514 52.2994 85.4069 51.693 85.4069 50.9569C85.4069 50.2002 85.2565 49.5833 84.9559 49.1065C84.6553 48.6192 84.1836 48.3756 83.5409 48.3756C82.95 48.3756 82.4938 48.6192 82.1725 49.1065C81.8615 49.5937 81.706 50.2053 81.706 50.9414Z" fill="white"></path>
  <path d="M90.8249 54.86H88.9434L88.9589 46.9761H90.8249V48.3756C91.1878 47.4012 91.8512 46.9139 92.8153 46.9139C93.033 46.9139 93.2093 46.9295 93.344 46.9606V48.7644C93.1056 48.6607 92.8413 48.6089 92.551 48.6089C92.043 48.6089 91.6284 48.8162 91.307 49.2309C90.9856 49.6455 90.8249 50.1639 90.8249 50.7859V54.86Z" fill="white"></path>
  <path d="M95.9337 50.9569C95.9337 51.6722 96.1151 52.2528 96.478 52.6985C96.8408 53.1443 97.2918 53.3672 97.8308 53.3672C98.3906 53.3672 98.8571 53.1547 99.2303 52.7296C99.6035 52.2942 99.7901 51.667 99.7901 50.8481C99.7901 50.0498 99.5932 49.4538 99.1992 49.0598C98.8053 48.6555 98.3543 48.4534 97.8464 48.4534C97.3073 48.4534 96.8512 48.6763 96.478 49.122C96.1151 49.5574 95.9337 50.1691 95.9337 50.9569ZM101.656 54.86H99.7901V53.6315C99.2511 54.5231 98.4528 54.9688 97.3954 54.9688C96.3588 54.9688 95.5346 54.5749 94.923 53.787C94.3217 52.9992 94.0211 52.0454 94.0211 50.9258C94.0211 49.6818 94.3373 48.697 94.9696 47.9713C95.6124 47.2353 96.4313 46.8673 97.4265 46.8673C98.4528 46.8673 99.2407 47.3079 99.7901 48.189V43.8661H101.656V54.86Z" fill="white"></path>
  <path d="M105.617 54.86H103.751V46.9761H105.617V54.86ZM105.804 44.6125C105.804 44.9339 105.695 45.2034 105.478 45.4211C105.26 45.6388 104.995 45.7477 104.684 45.7477C104.373 45.7477 104.109 45.6388 103.891 45.4211C103.674 45.2034 103.565 44.9339 103.565 44.6125C103.565 44.3015 103.674 44.0372 103.891 43.8195C104.109 43.6018 104.373 43.4929 104.684 43.4929C104.995 43.4929 105.26 43.6018 105.478 43.8195C105.695 44.0372 105.804 44.3015 105.804 44.6125Z" fill="white"></path>
  <path d="M109.657 54.86H107.791V43.8661H109.657V54.86Z" fill="white"></path>
  <path d="M113.696 54.86H111.83V43.8661H113.696V54.86Z" fill="white"></path>
  <path d="M121.81 54.4246C121.26 54.7667 120.467 54.9377 119.431 54.9377C118.176 54.9377 117.186 54.5645 116.46 53.8181C115.735 53.0717 115.372 52.1076 115.372 50.9258C115.372 49.6715 115.714 48.6866 116.398 47.9713C117.082 47.256 117.938 46.8984 118.964 46.8984C119.99 46.8984 120.804 47.2094 121.405 47.8314C122.007 48.4534 122.307 49.3605 122.307 50.5526C122.307 50.8429 122.271 51.2161 122.198 51.6722H117.254C117.388 52.2424 117.668 52.6778 118.093 52.9784C118.529 53.2791 119.068 53.4294 119.71 53.4294C120.54 53.4294 121.239 53.222 121.81 52.8074V54.4246ZM119.011 48.3601C118.565 48.3601 118.176 48.5259 117.844 48.8577C117.523 49.179 117.316 49.6507 117.222 50.2727H120.535V50.0395C120.514 49.5315 120.374 49.1272 120.115 48.8266C119.866 48.5156 119.498 48.3601 119.011 48.3601Z" fill="white"></path>
  <path d="M125.888 54.86H124.007L124.022 46.9761H125.888V48.3756C126.251 47.4012 126.915 46.9139 127.879 46.9139C128.096 46.9139 128.273 46.9295 128.407 46.9606V48.7644C128.169 48.6607 127.905 48.6089 127.614 48.6089C127.106 48.6089 126.692 48.8162 126.37 49.2309C126.049 49.6455 125.888 50.1639 125.888 50.7859V54.86Z" fill="white"></path>
  <path d="M132.21 53.5382C132.625 53.5382 132.946 53.419 133.174 53.1806C133.413 52.9318 133.532 52.6104 133.532 52.2165V51.4701H132.568C132.08 51.4701 131.707 51.5737 131.448 51.7811C131.189 51.978 131.059 52.232 131.059 52.543C131.059 53.2065 131.443 53.5382 132.21 53.5382ZM133.61 53.9114C133.247 54.5853 132.563 54.9222 131.557 54.9222C130.811 54.9222 130.214 54.7045 129.769 54.2691C129.333 53.8337 129.116 53.2842 129.116 52.6208C129.116 51.8744 129.396 51.2887 129.955 50.8636C130.515 50.4386 131.324 50.2261 132.381 50.2261H133.532V49.744C133.532 49.3086 133.418 48.9769 133.19 48.7488C132.962 48.5208 132.573 48.4067 132.023 48.4067C131.184 48.4067 130.411 48.64 129.707 49.1065V47.3804C130.297 47.0176 131.147 46.8362 132.257 46.8362C134.392 46.8362 135.46 47.8314 135.46 49.8218V54.86H133.61V53.9114Z" fill="white"></path>
  <path d="M74.7604 19.2166H73.2893V24.1501H71.899V19.2166H70.4189V18.1043H74.7604V19.2166Z" fill="white"></path>
  <path d="M79.1373 23.8899C78.8263 24.0933 78.3509 24.1949 77.7111 24.1949C76.9636 24.1949 76.3805 23.9796 75.9619 23.5491C75.5493 23.1125 75.343 22.5534 75.343 21.8717C75.343 21.1481 75.5433 20.583 75.944 20.1764C76.3506 19.7637 76.8499 19.5574 77.442 19.5574C78.0519 19.5574 78.5333 19.7368 78.8861 20.0956C79.239 20.4485 79.4154 20.9777 79.4154 21.6833C79.4154 21.8209 79.3914 22.0571 79.3436 22.392H76.6705C76.7602 22.6431 76.9157 22.8375 77.137 22.975C77.3582 23.1125 77.6244 23.1813 77.9353 23.1813C78.3958 23.1813 78.7964 23.0527 79.1373 22.7956V23.8899ZM77.4958 20.5531C77.2865 20.5531 77.1011 20.6308 76.9396 20.7863C76.7782 20.9358 76.6705 21.1601 76.6167 21.4591H78.1954V21.3514C78.1536 20.8192 77.9204 20.5531 77.4958 20.5531Z" fill="white"></path>
  <path d="M83.7497 23.9348C83.3969 24.1262 82.9723 24.2218 82.476 24.2218C81.7942 24.2218 81.2321 24.0066 80.7896 23.576C80.3471 23.1395 80.1258 22.5773 80.1258 21.8896C80.1378 21.2079 80.359 20.6458 80.7896 20.2033C81.2202 19.7548 81.8092 19.5305 82.5567 19.5305C83.0171 19.5305 83.4148 19.6172 83.7497 19.7907V20.9119C83.4328 20.7146 83.0799 20.6159 82.6912 20.6159C82.3265 20.6159 82.0304 20.7265 81.8032 20.9478C81.576 21.1631 81.4594 21.477 81.4534 21.8896C81.4773 22.2903 81.5969 22.6013 81.8122 22.8225C82.0275 23.0438 82.3115 23.1544 82.6643 23.1544C83.0411 23.1544 83.4029 23.0498 83.7497 22.8405V23.9348Z" fill="white"></path>
  <path d="M88.7258 24.1501H87.4162V21.4411C87.4162 21.172 87.3534 20.9687 87.2278 20.8312C87.1022 20.6877 86.9258 20.6159 86.6986 20.6159C86.4594 20.6159 86.2591 20.7116 86.0976 20.9029C85.9421 21.0883 85.8644 21.3694 85.8644 21.7461V24.1501H84.5548V19.6023H85.8644V20.3737C85.978 20.1225 86.1514 19.9252 86.3846 19.7817C86.6238 19.6322 86.9079 19.5574 87.2368 19.5574C87.7032 19.5574 88.068 19.698 88.3311 19.979C88.5942 20.2541 88.7258 20.6607 88.7258 21.1989V24.1501Z" fill="white"></path>
  <path d="M93.9919 21.8538C93.9919 22.5415 93.7946 23.1096 93.3999 23.5581C93.0112 24.0006 92.467 24.2218 91.7673 24.2218C91.0557 24.2218 90.5056 24.0095 90.1169 23.585C89.7282 23.1544 89.5338 22.6042 89.5338 21.9345C89.5338 21.2348 89.7371 20.6607 90.1438 20.2122C90.5504 19.7578 91.0916 19.5305 91.7673 19.5305C92.473 19.5305 93.0201 19.7488 93.4088 20.1853C93.7975 20.6219 93.9919 21.178 93.9919 21.8538ZM91.1125 20.9298C90.969 21.175 90.8972 21.492 90.8972 21.8807C90.8972 22.2694 90.969 22.5893 91.1125 22.8405C91.262 23.0856 91.4833 23.2082 91.7763 23.2082C92.0633 23.2082 92.2756 23.0886 92.4132 22.8494C92.5567 22.6042 92.6285 22.2873 92.6285 21.8986C92.6285 21.0076 92.3384 20.5621 91.7584 20.5621C91.4713 20.5621 91.256 20.6847 91.1125 20.9298Z" fill="white"></path>
  <path d="M96.202 24.1501H94.8923V17.8083H96.202V24.1501Z" fill="white"></path>
  <path d="M101.56 21.8538C101.56 22.5415 101.363 23.1096 100.968 23.5581C100.58 24.0006 100.035 24.2218 99.3358 24.2218C98.6242 24.2218 98.074 24.0095 97.6853 23.585C97.2966 23.1544 97.1022 22.6042 97.1022 21.9345C97.1022 21.2348 97.3056 20.6607 97.7122 20.2122C98.1188 19.7578 98.66 19.5305 99.3358 19.5305C100.041 19.5305 100.589 19.7488 100.977 20.1853C101.366 20.6219 101.56 21.178 101.56 21.8538ZM98.681 20.9298C98.5374 21.175 98.4657 21.492 98.4657 21.8807C98.4657 22.2694 98.5374 22.5893 98.681 22.8405C98.8305 23.0856 99.0517 23.2082 99.3447 23.2082C99.6318 23.2082 99.8441 23.0886 99.9816 22.8494C100.125 22.6042 100.197 22.2873 100.197 21.8986C100.197 21.0076 99.9069 20.5621 99.3268 20.5621C99.0398 20.5621 98.8245 20.6847 98.681 20.9298ZM99.9816 19.1897H98.8962L99.6677 17.602H100.977L99.9816 19.1897Z" fill="white"></path>
  <path d="M106.632 23.7105C106.632 24.4401 106.414 24.9873 105.977 25.3521C105.54 25.7228 104.993 25.9082 104.335 25.9082C103.696 25.9082 103.137 25.7946 102.658 25.5673V24.2308C103.077 24.5657 103.591 24.7331 104.201 24.7331C104.596 24.7331 104.883 24.6494 105.062 24.482C105.241 24.3145 105.331 24.0514 105.331 23.6926V23.3876C105.068 23.7943 104.649 23.9976 104.075 23.9976C103.573 23.9976 103.139 23.8122 102.775 23.4414C102.416 23.0707 102.237 22.5205 102.237 21.791C102.237 21.1451 102.41 20.6129 102.757 20.1943C103.11 19.7697 103.57 19.5574 104.138 19.5574C104.676 19.5574 105.074 19.7727 105.331 20.2033V19.6023H106.632V23.7105ZM103.6 21.7999C103.6 22.1767 103.672 22.4637 103.815 22.6611C103.959 22.8584 104.165 22.9571 104.434 22.9571C104.715 22.9571 104.933 22.8524 105.089 22.6431C105.25 22.4278 105.331 22.1707 105.331 21.8717C105.331 21.0584 105.035 20.6518 104.443 20.6518C104.18 20.6518 103.974 20.7534 103.824 20.9568C103.675 21.1601 103.6 21.4411 103.6 21.7999Z" fill="white"></path>
  <path d="M109.017 24.1501H107.708V19.6023H109.017V24.1501ZM108.901 17.7455C109.05 17.895 109.125 18.0744 109.125 18.2837C109.125 18.493 109.05 18.6724 108.901 18.8219C108.751 18.9714 108.572 19.0461 108.363 19.0461C108.153 19.0461 107.974 18.9714 107.824 18.8219C107.675 18.6724 107.6 18.493 107.6 18.2837C107.6 18.0744 107.675 17.895 107.824 17.7455C107.974 17.596 108.153 17.5212 108.363 17.5212C108.572 17.5212 108.751 17.596 108.901 17.7455Z" fill="white"></path>
  <path d="M113.542 23.9348C113.189 24.1262 112.764 24.2218 112.268 24.2218C111.586 24.2218 111.024 24.0066 110.582 23.576C110.139 23.1395 109.918 22.5773 109.918 21.8896C109.93 21.2079 110.151 20.6458 110.582 20.2033C111.012 19.7548 111.601 19.5305 112.349 19.5305C112.809 19.5305 113.207 19.6172 113.542 19.7907V20.9119C113.225 20.7146 112.872 20.6159 112.483 20.6159C112.118 20.6159 111.822 20.7265 111.595 20.9478C111.368 21.1631 111.251 21.477 111.245 21.8896C111.269 22.2903 111.389 22.6013 111.604 22.8225C111.819 23.0438 112.103 23.1544 112.456 23.1544C112.833 23.1544 113.195 23.0498 113.542 22.8405V23.9348Z" fill="white"></path>
  <path d="M118.581 21.8538C118.581 22.5415 118.383 23.1096 117.989 23.5581C117.6 24.0006 117.056 24.2218 116.356 24.2218C115.644 24.2218 115.094 24.0095 114.706 23.585C114.317 23.1544 114.122 22.6042 114.122 21.9345C114.122 21.2348 114.326 20.6607 114.732 20.2122C115.139 19.7578 115.68 19.5305 116.356 19.5305C117.062 19.5305 117.609 19.7488 117.998 20.1853C118.386 20.6219 118.581 21.178 118.581 21.8538ZM115.701 20.9298C115.558 21.175 115.486 21.492 115.486 21.8807C115.486 22.2694 115.558 22.5893 115.701 22.8405C115.851 23.0856 116.072 23.2082 116.365 23.2082C116.652 23.2082 116.864 23.0886 117.002 22.8494C117.145 22.6042 117.217 22.2873 117.217 21.8986C117.217 21.0076 116.927 20.5621 116.347 20.5621C116.06 20.5621 115.845 20.6847 115.701 20.9298Z" fill="white"></path>
  <path d="M32.53 12.73C25.2937 12.7401 18.2664 15.1568 12.5545 19.5996C6.84264 24.0424 2.77073 30.2588 0.97998 37.27H7.83998C9.55207 32.0719 12.8608 27.5465 17.2948 24.3386C21.7289 21.1306 27.0622 19.4037 32.535 19.4037C38.0078 19.4037 43.3411 21.1306 47.7751 24.3386C52.2092 27.5465 55.5179 32.0719 57.23 37.27H64.09C62.2988 30.2571 58.2254 24.0395 52.5115 19.5965C46.7976 15.1536 39.768 12.7379 32.53 12.73Z" fill="#02BD7F"></path>
  <path d="M32.5299 60.2001C29.935 60.2028 27.3841 59.5292 25.1289 58.2456C22.8737 56.962 20.992 55.1127 19.6693 52.8802C18.3466 50.6477 17.6286 48.109 17.5862 45.5145C17.5437 42.9199 18.1782 40.3591 19.4271 38.0844C20.676 35.8098 22.4962 33.9 24.7081 32.5433C26.9201 31.1865 29.4475 30.4298 32.0411 30.3476C34.6348 30.2653 37.205 30.8605 39.4985 32.0745C41.792 33.2884 43.7294 35.0791 45.1199 37.2701H52.4899C50.6312 32.6335 47.216 28.7888 42.831 26.3964C38.4459 24.0039 33.3647 23.213 28.4599 24.1595C23.5551 25.106 19.133 27.7308 15.953 31.5831C12.7731 35.4354 11.0337 40.2748 11.0337 45.2701C11.0337 50.2653 12.7731 55.1047 15.953 58.957C19.133 62.8093 23.5551 65.4341 28.4599 66.3806C33.3647 67.3271 38.4459 66.5362 42.831 64.1437C47.216 61.7513 50.6312 57.9066 52.4899 53.2701H45.1199C43.7745 55.3917 41.9152 57.1393 39.7143 58.3508C37.5134 59.5622 35.0422 60.1983 32.5299 60.2001Z" fill="#02BD7F"></path>
  <path d="M32.5298 9.48012C35.1145 9.48012 37.2098 7.38481 37.2098 4.80012C37.2098 2.21542 35.1145 0.120117 32.5298 0.120117C29.9452 0.120117 27.8499 2.21542 27.8499 4.80012C27.8499 7.38481 29.9452 9.48012 32.5298 9.48012Z" fill="#02BD7F"></path>
</svg>
